<svg width="64" height="18" viewBox="0 0 64 18" fill="none" xmlns="http://www.w3.org/2000/svg">
<path d="M15.5496 6.35049V11.1982C15.5453 12.046 15.1912 12.8579 14.5642 13.4575C13.9372 14.057 13.088 14.3957 12.2011 14.4C11.1563 14.4 10.3013 14.0176 9.63591 13.2528C8.963 14.0181 8.10391 14.4005 7.05863 14.4C6.17181 14.3957 5.3226 14.057 4.69558 13.4575C4.06857 12.8579 3.71443 12.046 3.71014 11.1982V6.35049H5.27735V11.1982C5.27829 11.6496 5.46626 12.0822 5.80011 12.4014C6.13396 12.7205 6.58649 12.9002 7.05863 12.9011C7.29199 12.9049 7.52376 12.8636 7.74006 12.7798C7.95636 12.6959 8.15275 12.5713 8.3175 12.4132C8.48617 12.2569 8.62037 12.0699 8.71217 11.8632C8.80396 11.6565 8.85149 11.4343 8.85195 11.2098V6.35049H10.4199V11.2098C10.4163 11.4338 10.4608 11.6562 10.5507 11.8632C10.6405 12.0702 10.7738 12.2574 10.9423 12.4132C11.107 12.5713 11.3034 12.6959 11.5197 12.7798C11.736 12.8636 11.9678 12.9049 12.2011 12.9011C12.6734 12.9006 13.1261 12.721 13.4601 12.4018C13.794 12.0825 13.9819 11.6497 13.9824 11.1982V6.35049H15.5496Z" fill="white"/>
<path d="M21.447 11.1264C21.6151 11.6328 21.9429 12.077 22.3855 12.3983C22.8398 12.727 23.3951 12.9026 23.9648 12.8977C24.4496 12.8938 24.9277 12.7893 25.3661 12.5914C25.8576 12.3791 26.2179 12.1103 26.4471 11.7851L27.7414 12.6253C27.3671 13.1552 26.8256 13.5828 26.1168 13.9081C25.4484 14.2254 24.7131 14.3925 23.9669 14.3966C23.412 14.4049 22.8613 14.3044 22.3486 14.1012C21.836 13.8981 21.3723 13.5966 20.9863 13.2155C20.1626 12.429 19.7511 11.4831 19.7515 10.3776C19.7525 9.30973 20.1967 8.28583 20.9866 7.53077C21.7766 6.77571 22.8477 6.35122 23.9648 6.3505C25.1211 6.3505 26.1109 6.74397 26.934 7.53092C27.3327 7.89954 27.6482 8.34227 27.8612 8.83184C28.0741 9.32141 28.18 9.84747 28.1724 10.3776C28.1726 10.6252 28.1489 10.8722 28.1015 11.1156L21.447 11.1264ZM23.9648 7.84602C23.395 7.84079 22.8396 8.01644 22.3855 8.34543C21.9406 8.6692 21.6126 9.11763 21.447 9.62817H26.4712C26.3059 9.11768 25.9781 8.66924 25.5334 8.34543C25.0828 8.01743 24.5311 7.84176 23.9648 7.84602Z" fill="white"/>
<path d="M32.2615 14.3966V10.3776C32.2528 9.84713 32.3578 9.32053 32.5702 8.83034C32.7826 8.34015 33.0978 7.89677 33.4963 7.52753C34.32 6.74284 35.3097 6.3505 36.4656 6.3505C37.5837 6.3505 38.6561 6.77514 39.4468 7.53101C40.2375 8.28688 40.6816 9.31206 40.6816 10.381V14.4H39.1137V10.3776C39.1137 9.70764 38.8353 9.06509 38.3398 8.59134C37.8442 8.11759 37.1721 7.85144 36.4712 7.85144C35.7704 7.85144 35.0983 8.11759 34.6027 8.59134C34.1072 9.06509 33.8288 9.70764 33.8288 10.3776V14.3966H32.2615Z" fill="white"/>
<path d="M44.7737 3.6H46.3409V5.05283H44.7737V3.6ZM44.7737 6.3471H46.3409V14.3966H44.7737V6.3471Z" fill="white"/>
<path d="M60.2899 6.3505L56.7273 13.6472C56.491 14.1464 56.0832 14.3962 55.5039 14.3966C54.9245 14.3971 54.513 14.1473 54.2691 13.6472L50.7066 6.3505H52.4404L55.3026 12.2086C55.3201 12.2457 55.3484 12.2772 55.3842 12.2993C55.42 12.3214 55.4616 12.3332 55.5042 12.3332C55.5468 12.3332 55.5885 12.3214 55.6243 12.2993C55.6601 12.2772 55.6884 12.2457 55.7059 12.2086L58.5681 6.3505H60.2899Z" fill="white"/>
</svg>
